<?xml version="1.0" standalone="no"?>
<!DOCTYPE svg PUBLIC "-//W3C//DTD SVG 20010904//EN"
 "http://www.w3.org/TR/2001/REC-SVG-20010904/DTD/svg10.dtd">
<svg version="1.0" xmlns="http://www.w3.org/2000/svg"
 width="600.000000pt" height="600.000000pt" viewBox="0 0 600.000000 600.000000"
 preserveAspectRatio="xMidYMid meet">
<metadata>
Created by potrace 1.14, written by Peter Selinger 2001-2017
</metadata>
<g transform="translate(0.000000,600.000000) scale(0.100000,-0.100000)"
fill="#000000" stroke="none">
<path d="M4529 5987 c-15 -6 -35 -28 -49 -56 -14 -25 -27 -48 -30 -51 -3 -3
-14 -21 -24 -40 -59 -108 -126 -227 -158 -280 -12 -19 -39 -69 -61 -110 -22
-41 -58 -109 -80 -150 -23 -41 -47 -88 -55 -105 -9 -16 -41 -75 -72 -130 -32
-55 -69 -122 -84 -150 -14 -27 -42 -77 -61 -110 -19 -33 -40 -71 -47 -85 -20
-42 -110 -149 -130 -156 -11 -3 -17 -8 -14 -11 5 -5 -91 -83 -101 -83 -2 0
-54 53 -116 117 -61 64 -138 143 -170 174 -57 57 -101 79 -120 60 -13 -13 -26
-100 -16 -107 5 -2 4 -15 -1 -28 -5 -13 -7 -26 -4 -29 3 -3 7 -49 10 -103 2
-55 6 -119 9 -144 16 -168 16 -212 -2 -232 -27 -30 -133 -110 -133 -101 0 4
-6 1 -13 -7 -7 -9 -27 -25 -44 -36 -18 -11 -55 -41 -82 -67 -71 -68 -96 -121
-108 -227 -4 -39 -14 -65 -34 -91 -16 -20 -26 -39 -22 -43 3 -3 1 -6 -5 -6 -7
0 -34 -23 -60 -52 -26 -28 -59 -62 -74 -76 -16 -14 -28 -29 -28 -35 0 -5 -9
-21 -20 -36 -17 -25 -68 -162 -75 -201 -1 -8 -6 -24 -11 -35 -10 -23 -11 -214
-2 -265 4 -19 12 -51 18 -70 6 -19 13 -42 15 -50 2 -8 9 -28 16 -45 7 -16 12
-33 11 -37 -1 -5 3 -8 8 -8 6 0 10 -5 10 -11 0 -24 86 -136 147 -193 95 -88
157 -132 260 -182 108 -52 198 -83 268 -90 60 -7 71 -15 78 -57 3 -18 9 -44
12 -59 4 -16 2 -40 -6 -57 -13 -28 -29 -42 -29 -23 0 4 -20 18 -45 31 -25 13
-45 27 -45 31 0 4 -11 11 -25 14 -14 4 -25 10 -25 15 0 5 -23 23 -50 41 l-51
32 -38 -38 c-21 -22 -51 -61 -66 -89 -15 -27 -32 -53 -38 -57 -15 -9 -50 18
-148 112 -46 45 -97 88 -112 96 -55 30 -64 27 -99 -33 -76 -127 -88 -144 -112
-153 -22 -8 -72 13 -92 40 -14 17 -205 210 -249 251 -38 35 -84 57 -110 53
-25 -4 -41 14 -105 117 -43 69 -107 162 -148 214 -4 6 -41 64 -82 130 -41 66
-80 127 -87 135 -7 8 -29 41 -50 72 -42 62 -175 239 -210 277 -19 21 -25 23
-47 13 -24 -11 -24 -14 -21 -91 2 -44 7 -85 10 -91 4 -6 9 -48 11 -93 2 -45
10 -106 18 -136 8 -30 13 -58 10 -63 -3 -4 0 -8 6 -8 6 0 9 -4 6 -9 -4 -5 -1
-22 5 -38 6 -15 13 -48 15 -73 2 -25 6 -58 9 -75 5 -31 10 -61 20 -130 3 -22
13 -62 21 -90 24 -75 29 -126 12 -119 -7 3 -46 51 -86 107 -39 56 -84 116
-100 134 -15 17 -43 50 -62 73 -19 23 -51 60 -70 81 -19 22 -45 52 -57 67 -52
62 -66 79 -121 140 -31 35 -61 71 -66 80 -15 26 -99 102 -113 102 -7 0 -13 7
-13 15 0 23 -50 14 -68 -12 -10 -16 -13 -36 -9 -61 9 -56 12 -65 27 -92 7 -14
12 -25 11 -25 -5 0 10 -57 36 -144 14 -47 26 -89 28 -95 1 -6 4 -18 7 -26 52
-162 72 -220 84 -242 8 -15 15 -31 15 -35 0 -15 11 -58 26 -103 18 -52 20 -62
21 -74 0 -5 4 -12 9 -15 9 -6 42 -105 48 -146 2 -11 4 -20 5 -20 1 0 3 -8 6
-17 7 -29 11 -42 17 -58 3 -8 13 -41 22 -73 9 -31 28 -85 42 -120 14 -34 28
-79 30 -99 5 -38 4 -38 -30 -38 -56 0 -62 -15 -42 -110 1 -3 5 -25 9 -50 5
-25 11 -54 13 -65 18 -71 16 -85 -20 -128 -19 -23 -46 -54 -59 -68 -13 -14
-30 -41 -38 -59 -12 -29 -12 -33 6 -43 10 -6 30 -13 44 -15 23 -3 87 -29 132
-53 10 -5 25 -9 33 -9 9 0 29 -7 45 -15 l29 -15 -24 -49 c-14 -27 -25 -51 -25
-54 0 -3 -5 -18 -12 -34 -6 -15 -12 -34 -14 -42 -1 -7 -7 -18 -11 -22 -5 -5
-7 -24 -5 -43 4 -31 8 -35 50 -47 26 -7 54 -11 64 -10 9 1 33 -5 53 -14 21 -8
47 -15 59 -15 46 0 48 -15 6 -61 -38 -42 -58 -88 -46 -107 5 -8 81 -34 111
-38 6 0 12 -2 15 -3 3 -1 30 -4 60 -6 81 -6 151 -15 161 -20 4 -3 29 2 55 11
37 12 52 14 66 5 10 -6 23 -11 30 -11 7 0 32 -8 55 -17 l43 -18 -4 -48 c-4
-37 -1 -49 12 -55 20 -10 128 -9 232 4 88 10 144 11 185 2 17 -3 49 -9 72 -13
44 -8 61 -28 43 -51 -25 -29 54 -43 246 -44 100 0 186 8 221 21 48 18 88 -18
78 -69 -7 -37 20 -41 211 -36 249 6 349 5 349 -6 0 -2 37 -10 70 -15 40 -5 64
-11 111 -25 22 -6 53 -13 69 -16 29 -4 63 -12 95 -21 32 -10 408 -11 455 -2
28 5 63 12 79 15 16 3 34 7 39 11 5 3 26 7 46 10 51 6 96 21 168 55 61 28 63
28 95 12 25 -13 56 -17 123 -17 78 1 210 9 225 14 3 0 24 1 48 1 31 -1 47 5
62 20 25 27 25 32 0 87 l-20 44 27 34 c161 200 264 366 271 435 3 37 0 53 -19
80 -13 18 -26 35 -30 38 -3 3 -25 33 -47 68 -39 60 -47 102 -22 110 5 2 10 10
10 18 0 8 4 14 8 14 9 0 75 98 78 115 1 5 3 15 4 20 5 23 -3 36 -69 100 l-70
68 50 73 c27 40 49 75 49 78 0 2 16 39 35 80 50 109 44 132 -60 214 -44 34
-85 67 -92 72 -7 6 -15 10 -18 10 -4 0 -13 6 -20 14 -15 14 -16 22 -14 109 0
12 -2 78 -5 147 -5 113 -4 129 14 160 11 19 37 69 58 110 20 41 43 81 50 88 7
8 10 18 7 23 -3 4 1 20 10 33 9 14 23 48 30 77 13 49 13 55 -5 85 -19 30 -166
133 -262 184 -27 13 -48 29 -49 35 0 5 -2 17 -5 25 -2 8 -11 53 -20 100 -9 47
-19 92 -22 100 -3 8 -6 22 -7 31 -1 8 -7 37 -14 65 -6 27 -14 59 -16 72 -3 12
-7 32 -10 45 -3 12 -10 45 -15 72 -9 46 -13 62 -24 115 -3 11 -7 23 -9 28 -3
4 -8 28 -11 55 -4 26 -11 58 -16 71 -5 13 -6 26 -4 29 3 3 8 20 11 39 2 18 6
37 6 43 1 5 8 16 15 23 6 7 12 24 12 36 0 12 3 26 8 30 4 4 7 11 8 14 0 4 4
15 7 25 10 26 18 52 18 55 -1 1 5 18 13 37 9 20 15 36 15 38 0 1 2 9 4 17 13
42 35 138 35 157 1 29 -33 53 -67 47 -14 -3 -73 -21 -131 -40 -58 -20 -112
-37 -120 -39 -26 -5 -60 14 -60 33 0 10 -3 22 -7 26 -24 23 -43 270 -28 366 6
40 14 140 20 250 3 41 7 86 9 100 3 14 7 45 10 70 3 25 8 55 10 67 3 11 7 63
11 115 3 51 11 112 16 136 9 42 15 75 24 142 2 19 6 46 9 60 6 36 18 156 21
219 2 42 -2 62 -19 87 -38 59 -134 94 -197 71z"/>
</g>
</svg>
