<?xml version="1.0" standalone="no"?>
<!DOCTYPE svg PUBLIC "-//W3C//DTD SVG 20010904//EN"
 "http://www.w3.org/TR/2001/REC-SVG-20010904/DTD/svg10.dtd">
<svg version="1.0" xmlns="http://www.w3.org/2000/svg"
 width="600.000000pt" height="600.000000pt" viewBox="0 0 600.000000 600.000000"
 preserveAspectRatio="xMidYMid meet">
<metadata>
Created by potrace 1.14, written by Peter Selinger 2001-2017
</metadata>
<g transform="translate(0.000000,600.000000) scale(0.100000,-0.100000)"
fill="#000000" stroke="none">
<path d="M4535 5991 c-11 -5 -27 -17 -36 -27 -23 -28 -259 -446 -391 -694 -63
-118 -124 -231 -135 -250 -11 -19 -34 -61 -52 -94 -18 -32 -45 -79 -60 -105
-14 -25 -38 -68 -51 -95 -29 -57 -145 -185 -206 -227 l-42 -29 -169 175 c-173
179 -208 204 -240 172 -18 -18 -20 -204 -4 -371 25 -254 25 -243 -12 -280 -18
-18 -71 -58 -117 -89 -93 -62 -166 -126 -197 -172 -26 -38 -53 -127 -53 -175
0 -43 -20 -72 -132 -193 -94 -100 -118 -137 -152 -233 -49 -138 -59 -191 -53
-309 9 -205 94 -387 244 -522 91 -82 134 -112 238 -165 99 -51 202 -87 279
-98 32 -5 60 -11 63 -13 2 -3 11 -32 19 -66 10 -47 11 -66 2 -86 -6 -14 -15
-25 -19 -25 -10 0 -83 48 -170 112 -37 26 -71 48 -77 48 -17 0 -84 -77 -112
-128 -14 -26 -33 -48 -42 -50 -10 -2 -57 35 -120 94 -107 100 -152 134 -178
134 -9 0 -46 -47 -84 -105 -90 -140 -104 -139 -241 12 -77 85 -161 163 -228
211 -22 16 -40 22 -58 18 -30 -6 -39 4 -114 129 -27 44 -60 94 -74 110 -14 17
-52 71 -84 120 -178 275 -230 351 -313 460 -50 66 -100 128 -111 138 -19 17
-21 17 -43 -1 l-24 -19 15 -134 c7 -74 13 -142 11 -153 -1 -10 14 -83 33 -163
19 -79 35 -159 35 -176 0 -44 24 -175 50 -275 12 -45 20 -88 18 -94 -3 -7 -43
40 -91 105 -48 64 -169 212 -269 328 -101 116 -190 221 -198 233 -13 20 -94
100 -132 132 -40 32 -86 8 -89 -46 -1 -19 12 -82 30 -140 17 -58 43 -143 57
-190 43 -146 84 -273 108 -335 26 -66 110 -328 152 -470 14 -49 39 -124 55
-165 15 -41 31 -92 35 -112 l6 -38 -41 0 c-29 0 -44 -5 -48 -16 -6 -15 20
-171 38 -230 15 -47 3 -74 -56 -140 -70 -77 -84 -108 -60 -134 10 -11 27 -20
37 -20 11 0 51 -14 88 -30 38 -17 83 -33 99 -36 51 -10 53 -23 19 -105 -33
-80 -60 -178 -52 -190 6 -10 74 -29 123 -35 18 -3 41 -8 50 -13 9 -5 31 -11
49 -14 47 -8 49 -13 20 -45 -41 -44 -58 -75 -58 -103 0 -24 6 -28 58 -42 69
-19 239 -41 304 -40 25 1 56 7 68 13 17 9 28 9 44 1 11 -6 44 -19 71 -29 l50
-18 -3 -51 c-3 -46 -1 -52 19 -58 24 -8 213 2 293 15 36 6 79 4 143 -7 l92
-16 3 -36 c3 -31 7 -37 33 -42 62 -13 371 -10 412 5 34 12 42 12 68 -3 24 -13
30 -23 30 -50 0 -30 4 -36 29 -42 38 -10 179 -12 336 -4 132 7 186 -1 455 -67
79 -19 119 -22 315 -22 201 -1 236 1 330 23 121 27 238 66 262 87 14 14 20 14
50 -2 38 -20 165 -24 343 -11 93 8 113 12 128 30 19 22 16 59 -8 106 -12 23
-8 30 51 102 78 95 174 241 213 323 36 75 31 114 -21 179 -38 45 -81 112 -91
139 -4 11 9 38 38 77 24 33 53 78 65 102 27 52 20 68 -62 140 -32 28 -58 56
-58 64 0 7 10 26 23 42 33 42 43 59 93 163 68 142 63 155 -103 281 l-92 69 0
118 c-1 64 -3 145 -6 178 -4 52 -1 68 20 105 26 48 90 177 123 249 12 25 26
67 33 93 11 44 10 51 -8 75 -23 31 -148 120 -241 171 -75 41 -67 22 -117 261
-19 91 -48 228 -65 305 -57 253 -60 273 -50 325 5 27 14 57 19 67 9 18 45 121
61 178 5 17 21 70 35 119 32 110 31 147 -8 160 -22 8 -50 2 -151 -32 -68 -23
-137 -42 -154 -42 -30 0 -32 3 -53 68 -24 76 -34 299 -19 407 5 33 14 119 20
190 12 140 49 458 73 620 45 297 46 337 13 386 -38 56 -139 93 -191 70z m111
-50 c54 -24 59 -35 29 -55 -14 -9 -36 -33 -49 -54 -13 -20 -45 -60 -72 -87
-39 -40 -70 -93 -151 -256 -93 -189 -116 -229 -129 -217 -7 8 197 586 224 632
11 18 32 36 52 43 46 16 48 16 96 -6z m-1211 -1375 c134 -135 249 -255 256
-267 21 -39 14 -130 -15 -190 -50 -105 -137 -170 -263 -195 -53 -10 -136 21
-177 66 -35 39 -36 42 -36 123 0 45 -5 125 -10 177 -5 52 -12 181 -16 286 -6
174 -3 244 12 244 2 0 115 -110 249 -244z m1001 -721 c67 -10 109 -38 147 -99
90 -142 127 -287 127 -502 0 -137 -1 -146 -40 -269 -21 -70 -51 -148 -66 -173
-33 -57 -102 -132 -120 -132 -8 0 -14 -4 -14 -9 0 -14 -58 -31 -104 -31 -48 0
-139 48 -157 83 -7 12 -27 40 -44 62 -18 22 -42 59 -54 82 -22 44 -59 216 -62
293 -3 68 11 240 24 285 6 22 10 43 9 47 -3 13 49 143 64 159 8 8 14 19 14 22
0 45 180 205 216 192 6 -2 33 -7 60 -10z m-1510 -235 c35 -19 68 -51 103 -98
64 -87 71 -118 38 -158 -31 -38 -103 -169 -129 -236 -79 -208 -76 -531 7 -673
37 -63 93 -123 141 -151 25 -15 44 -28 42 -29 -5 -5 -159 49 -197 69 -68 36
-197 130 -246 180 -109 112 -175 239 -211 404 -22 101 -11 210 35 350 47 143
151 283 255 342 64 37 98 37 162 0z m1001 -44 c34 -11 62 -28 83 -53 32 -35
32 -37 24 -102 -5 -36 -9 -136 -8 -221 1 -133 5 -170 27 -259 27 -104 74 -193
141 -264 31 -34 116 -74 173 -83 55 -8 130 32 186 98 22 27 46 48 52 48 7 0
32 -32 55 -71 49 -83 49 -100 1 -217 -46 -111 -91 -249 -91 -278 0 -27 26 -57
113 -129 l49 -40 -17 -60 c-10 -33 -22 -67 -26 -75 -14 -25 -59 -165 -59 -183
0 -9 36 -44 80 -78 48 -37 80 -70 80 -80 0 -10 -7 -36 -15 -56 -15 -37 -17
-38 -70 -40 -57 -3 -136 -35 -167 -69 -24 -27 -55 -105 -63 -158 -4 -25 -12
-49 -19 -54 -18 -14 -201 -43 -311 -49 -142 -8 -375 27 -457 69 -29 14 -38 25
-38 43 0 14 -8 52 -17 85 -21 79 -69 134 -133 157 -46 16 -51 22 -80 83 -16
37 -30 80 -30 96 0 16 15 81 34 144 49 166 51 187 28 267 -39 134 -35 163 22
163 68 0 256 73 352 136 91 60 234 216 234 255 0 29 -12 23 -45 -23 -45 -61
-205 -199 -266 -230 -130 -64 -238 -98 -312 -100 -213 -4 -386 83 -452 227
-84 183 -95 310 -46 547 15 68 71 210 93 235 11 12 36 46 56 76 65 98 268 231
392 258 64 14 389 3 447 -15z m-2567 -441 c89 -127 170 -288 170 -337 0 -35
-16 -56 -32 -40 -34 34 -33 1 4 -116 23 -73 19 -97 -14 -86 -13 4 -32 8 -42 8
-14 0 -28 18 -49 67 -29 64 -68 103 -81 78 -2 -5 -3 -4 -2 3 2 7 -1 27 -6 43
-35 116 -96 509 -84 541 9 23 5 28 136 -161z m-585 -190 c51 -55 117 -129 146
-163 125 -147 275 -332 330 -407 62 -84 118 -157 224 -292 38 -49 59 -83 50
-83 -24 0 -35 -35 -35 -111 l0 -72 -138 7 c-108 5 -141 4 -149 -6 -5 -7 -18
-48 -28 -91 -10 -43 -22 -74 -26 -70 -4 5 -22 50 -39 101 -30 91 -94 235 -164
374 -23 45 -31 68 -23 72 7 2 4 5 -5 5 -9 1 -20 11 -24 24 -11 34 -63 147 -69
147 -2 0 -2 -8 1 -17 5 -15 3 -15 -7 1 -6 11 -15 33 -19 50 -5 17 -22 69 -38
116 -17 47 -49 148 -72 225 -23 77 -53 173 -66 214 -17 55 -21 78 -13 92 10
19 11 19 41 2 17 -10 72 -63 123 -118z m84 -685 c0 -8 -7 1 -14 20 -18 46 -17
64 0 25 8 -16 14 -37 14 -45z m1109 38 c12 -12 17 -124 6 -151 -4 -11 -12 -7
-36 15 -32 30 -34 55 -9 121 12 30 21 33 39 15z m-1088 -93 c0 -5 -5 -3 -10 5
-5 8 -10 20 -10 25 0 6 5 3 10 -5 5 -8 10 -19 10 -25z m1679 -80 c-5 -36 -11
-71 -15 -77 -9 -14 -34 18 -34 44 0 16 45 98 53 98 2 0 0 -29 -4 -65z m-1414
-495 c-3 -5 -16 -10 -28 -9 -20 1 -20 2 3 9 14 4 26 8 28 9 2 1 0 -3 -3 -9z
m515 -11 c0 -18 -20 -18 -29 0 -9 16 -8 18 9 14 11 -3 20 -9 20 -14z m1849
-194 c61 -31 121 -148 121 -233 0 -46 -34 -112 -82 -159 l-39 -38 -87 1 c-74
1 -103 6 -192 38 -58 21 -115 40 -126 43 -33 7 -49 45 -33 74 31 61 242 255
301 278 35 15 106 13 137 -4z m1399 -146 c98 -102 197 -228 186 -238 -11 -11
-84 -34 -134 -41 -30 -5 -120 -12 -200 -16 -137 -6 -148 -5 -188 15 -54 28
-65 56 -59 152 6 88 44 180 89 212 39 29 115 46 160 35 31 -6 60 -30 146 -119z
m-1159 -165 c76 -24 251 -46 361 -46 88 0 242 17 338 38 18 4 22 0 22 -20 0
-33 59 -118 94 -134 16 -8 57 -14 97 -13 49 1 71 -3 75 -12 2 -7 -7 -47 -21
-88 -13 -41 -25 -81 -25 -90 0 -9 18 -24 40 -34 23 -10 43 -23 47 -27 10 -17
-71 -78 -162 -123 -93 -46 -186 -74 -339 -100 -258 -44 -611 22 -802 149 -57
38 -191 167 -209 200 l-18 34 39 62 39 61 45 -8 c132 -22 221 17 266 119 21
49 33 60 54 52 8 -4 35 -13 59 -20z m-1825 -87 c78 -77 85 -87 91 -133 3 -27
13 -68 22 -92 17 -49 12 -72 -16 -72 -11 0 -33 -11 -49 -25 -30 -25 -109 -168
-132 -237 -13 -44 -21 -45 -86 -18 -45 20 -46 21 -30 39 23 26 46 104 46 158
0 86 -74 184 -152 200 -21 4 -28 13 -37 50 -12 44 -8 63 10 63 6 0 31 15 56
33 57 41 176 115 185 116 5 1 46 -36 92 -82z m386 -47 c92 -117 111 -127 181
-100 29 11 53 19 54 17 1 -1 9 -36 20 -77 10 -41 27 -94 37 -118 21 -51 23
-77 6 -91 -67 -53 -103 -94 -149 -168 -29 -49 -57 -89 -61 -91 -4 -2 -8 -10
-8 -18 0 -10 -12 -14 -42 -14 -62 0 -74 11 -43 40 38 36 47 77 35 155 -6 37
-17 79 -24 94 -27 51 -102 102 -177 121 -46 12 -47 13 -68 76 -12 35 -21 74
-21 87 0 14 31 55 81 110 l81 88 32 -33 c17 -18 47 -53 66 -78z m-803 25 c28
-27 32 -38 34 -88 3 -66 7 -61 -107 -145 -79 -58 -82 -59 -92 -39 -39 79 -25
165 40 263 57 84 47 83 125 9z m1253 -68 c14 -23 31 -51 37 -62 7 -11 26 -43
42 -72 40 -68 63 -83 129 -83 34 0 54 -4 56 -12 2 -7 11 -42 20 -78 31 -118
32 -110 -26 -203 -56 -91 -66 -93 -67 -16 -1 20 -15 64 -32 98 -36 72 -71 94
-170 110 -51 8 -69 16 -86 38 -28 34 -62 139 -69 213 l-6 55 54 26 c75 38 89
36 118 -14z m-1125 -123 c72 -34 111 -145 85 -240 -28 -100 -86 -122 -265
-104 -132 13 -195 27 -195 44 0 18 31 59 120 155 102 112 156 152 213 160 5 0
24 -6 42 -15z m1610 -43 c17 -11 66 -55 111 -98 219 -211 625 -310 979 -238
174 35 338 104 448 188 33 26 42 28 63 19 26 -13 31 -42 14 -86 -7 -19 -19
-26 -47 -31 -93 -15 -170 -77 -199 -160 -16 -46 -19 -158 -4 -185 13 -24 1
-33 -90 -63 -152 -50 -416 -84 -575 -73 -202 14 -525 94 -525 131 0 8 4 24 9
38 34 89 23 180 -30 247 -62 79 -130 101 -263 87 -26 -3 -62 61 -71 126 l-7
47 44 0 c34 0 52 6 72 25 14 13 26 29 26 35 0 15 11 12 45 -9z m-1045 -98 c67
-35 90 -67 106 -144 15 -73 6 -106 -45 -153 -27 -26 -44 -31 -128 -42 -54 -7
-142 -13 -196 -14 l-99 0 7 33 c5 29 20 66 95 234 25 56 63 98 95 106 56 13
114 6 165 -20z m636 -124 c39 -22 54 -37 59 -59 4 -16 11 -32 16 -35 5 -4 9
-30 9 -59 0 -66 -28 -112 -88 -143 -76 -38 -414 -44 -429 -7 -5 15 9 45 76
156 49 81 108 144 161 171 49 25 128 15 196 -24z m504 -69 c61 -43 86 -138 60
-231 -15 -54 -73 -95 -154 -110 -67 -11 -299 -10 -311 3 -23 22 136 316 188
349 44 28 171 22 217 -11z m1528 2 c32 9 155 -113 226 -224 39 -61 43 -80 24
-96 -7 -5 -85 -15 -173 -22 -183 -14 -221 -9 -272 40 -31 29 -33 35 -33 101 0
38 6 84 14 102 16 40 77 95 114 103 15 3 32 7 37 8 6 2 20 -1 33 -5 12 -5 26
-8 30 -7z m-1947 -235 c-16 -16 -26 0 -10 19 9 11 15 12 17 4 2 -6 -1 -17 -7
-23z"/>
<path d="M4342 3590 c-26 -24 -46 -61 -67 -123 -44 -131 -48 -275 -9 -417 28
-105 59 -155 110 -176 29 -12 38 -12 67 2 74 35 127 185 130 369 3 150 -43
302 -103 345 -37 27 -99 26 -128 0z"/>
</g>
</svg>
